<svg width="120" height="32" viewBox="0 0 120 32" fill="none" xmlns="http://www.w3.org/2000/svg">
    <path d="M49.3694 27.1937V11.0851C49.3694 10.0254 48.8606 9.4948 47.8418 9.4948C47.4298 9.4948 47.0721 9.63733 46.7694 9.92167C46.466 10.2067 46.315 10.9073 46.315 12.0228C44.6908 10.3379 42.7999 9.4948 40.6423 9.4948C38.0487 9.4948 35.9398 10.5327 34.3156 12.6063C32.8615 14.4958 32.134 16.7084 32.134 19.2435C32.134 21.8018 32.8212 23.9792 34.1957 25.7762C35.7154 27.7821 37.7778 28.784 40.382 28.784C42.8176 28.784 44.7473 27.8378 46.1704 25.9441H46.2423V27.26C46.291 27.768 46.4632 28.149 46.7574 28.403C47.0516 28.657 47.4072 28.784 47.8242 28.784C48.8543 28.784 49.3694 28.2541 49.3694 27.1937ZM46.2423 19.1743C46.2423 21.1449 45.8409 22.7261 45.0387 23.9171C44.0897 25.3381 42.6179 26.0479 40.624 26.0479C38.7754 26.0479 37.401 25.2922 36.5014 23.7802C35.7472 22.5659 35.3704 21.0299 35.3704 19.1743C35.3704 17.2263 35.7592 15.6451 36.5381 14.4302C37.4617 12.964 38.8968 12.2309 40.8427 12.2309C42.6913 12.2309 44.0897 12.9873 45.0387 14.4993C45.8409 15.7601 46.2423 17.318 46.2423 19.1743Z" fill="#20A052"/>
    <path d="M57.0048 27.3322V18.7935C57.0048 17.3422 57.1988 16.2239 57.5869 15.4407C58.0709 14.4734 58.9923 13.7121 60.3498 13.1597C61.95 12.5374 62.8524 12.1169 63.0592 11.8974C63.2645 11.6787 63.3682 11.3732 63.3682 10.9816C63.3682 9.99102 62.8348 9.49501 61.768 9.49501C60.8952 9.49501 59.9738 9.87249 59.0043 10.626C58.1556 11.2892 57.5142 12.0315 57.0775 12.8542H57.0048C57.0048 11.6766 56.9801 10.9844 56.9321 10.7763C56.7381 10.0376 56.2047 9.66858 55.3319 9.66858C54.2651 9.66858 53.7324 10.1999 53.7324 11.261V27.2602C53.7324 28.2762 54.2651 28.7842 55.3319 28.7842C56.4467 28.7842 57.0048 28.3002 57.0048 27.3322Z" fill="#20A052"/>
    <path d="M80.9665 27.1937V11.0851C80.9665 10.0254 80.4578 9.4948 79.4397 9.4948C79.027 9.4948 78.6692 9.63733 78.3666 9.92167C78.0632 10.2067 77.9122 10.9073 77.9122 12.0228C76.288 10.3379 74.3971 9.4948 72.2395 9.4948C69.6459 9.4948 67.537 10.5327 65.9128 12.6063C64.4586 14.4958 63.7312 16.7084 63.7312 19.2435C63.7312 21.8018 64.4184 23.9792 65.7928 25.7762C67.3126 27.7821 69.3749 28.784 71.9792 28.784C74.4147 28.784 76.3444 27.8378 77.7675 25.9441H77.8395V27.26C77.8882 27.768 78.0603 28.149 78.3546 28.403C78.6488 28.657 79.0044 28.784 79.4214 28.784C80.4515 28.784 80.9665 28.2541 80.9665 27.1937ZM77.8395 19.1743C77.8395 21.1449 77.438 22.7261 76.6358 23.9171C75.6868 25.3381 74.2151 26.0479 72.2212 26.0479C70.3726 26.0479 68.9982 25.2922 68.0986 23.7802C67.3444 22.5659 66.9676 21.0299 66.9676 19.1743C66.9676 17.2263 67.3563 15.6451 68.1346 14.4302C69.0589 12.964 70.494 12.2309 72.4399 12.2309C74.2884 12.2309 75.6868 12.9873 76.6358 14.4993C77.438 15.7601 77.8395 17.318 77.8395 19.1743Z" fill="#20A052"/>
    <path d="M85.7969 28.2986C86.108 28.6224 86.4799 28.784 86.9117 28.784C88.0137 28.784 88.5655 28.2534 88.5655 27.1909V19.6414L97.0378 28.022C97.5465 28.53 98.1039 28.784 98.71 28.784C99.6314 28.784 100.092 28.3677 100.092 27.5345C100.092 26.9333 99.8756 26.4246 99.4431 26.0083L90.6949 17.8528L98.3452 12.0722C98.734 11.7702 98.9287 11.3991 98.9287 10.9574C98.9287 9.98234 98.4659 9.4948 97.5416 9.4948C97.0794 9.4948 96.642 9.65779 96.2278 9.98234L88.5655 16.1785V2.78073C88.5655 1.71605 88.0137 1.18406 86.9117 1.18406C85.8569 1.18406 85.3291 1.69276 85.3291 2.70947V27.1887C85.3291 27.6057 85.485 27.9747 85.7969 28.2986Z" fill="#20A052"/>
    <path d="M118.163 27.1937V11.0851C118.163 10.0254 117.655 9.4948 116.637 9.4948C116.224 9.4948 115.866 9.63733 115.563 9.92167C115.26 10.2067 115.109 10.9073 115.109 12.0228C113.485 10.3379 111.594 9.4948 109.436 9.4948C106.843 9.4948 104.734 10.5327 103.11 12.6063C101.656 14.4958 100.928 16.7084 100.928 19.2435C100.928 21.8018 101.615 23.9792 102.99 25.7762C104.509 27.7821 106.572 28.784 109.176 28.784C111.612 28.784 113.541 27.8378 114.964 25.9441H115.036V27.26C115.085 27.768 115.257 28.149 115.551 28.403C115.846 28.657 116.201 28.784 116.618 28.784C117.648 28.784 118.163 28.2541 118.163 27.1937ZM115.036 19.1743C115.036 21.1449 114.635 22.7261 113.833 23.9171C112.884 25.3381 111.412 26.0479 109.418 26.0479C107.569 26.0479 106.195 25.2922 105.295 23.7802C104.541 22.5659 104.164 21.0299 104.164 19.1743C104.164 17.2263 104.553 15.6451 105.331 14.4302C106.256 12.964 107.691 12.2309 109.637 12.2309C111.485 12.2309 112.884 12.9873 113.833 14.4993C114.635 15.7601 115.036 17.318 115.036 19.1743Z" fill="#20A052"/>
    <path d="M27.251 7.14189C27.251 5.17762 26.4812 3.49628 24.9431 2.09787C23.405 0.699461 21.4047 0.000253677 19.2443 0.000253677H11.3886C10.9625 0.000253677 10.5942 0.141365 10.2837 0.424292C9.9726 0.706514 9.81738 1.04165 9.81738 1.4283V25.6881C9.81738 27.1627 9.52175 31.2225 8.00269 31.9535C8.00269 31.9535 13.0601 32.9554 13.0601 25.643V14.2835H19.2443C20.963 14.2835 22.4398 14.8416 23.6759 15.9578C24.9113 17.074 25.5294 18.4202 25.5294 19.9971C25.5294 21.5747 24.9156 22.9209 23.6879 24.0371C22.4609 25.1533 20.9793 25.7107 19.2443 25.7107H18.114C14.5495 25.7107 14.6032 29.7105 14.6032 29.7105C14.6032 29.7105 15.1895 28.5675 19.2443 28.5675C21.8161 28.5675 24.198 27.7307 26.048 26.0571C27.8972 24.3829 28.8222 22.3628 28.8222 19.9971C28.8222 16.8136 27.1741 14.3809 24.179 12.6996C26.127 11.256 27.251 9.4039 27.251 7.14189ZM23.9581 7.14189C23.9581 8.31734 23.496 9.32559 22.571 10.1659C21.646 11.0069 20.5376 11.4274 19.2443 11.4274H13.0601V2.85634H19.2443C20.5376 2.85634 21.646 3.27756 22.571 4.11788C23.496 4.95819 23.9581 5.96643 23.9581 7.14189Z" fill="#20A052"/>
    <path d="M8.46056 1.65945H7.57297C6.89493 1.65945 6.07507 2.05668 6.07507 3.34079V24.4136C6.07507 25.7189 5.87963 29.2008 4.8728 29.8485C4.8728 29.8485 8.45985 30.8504 8.45985 24.3727V14.3115H8.46056V11.7814H8.45985V4.18958H8.46056V1.65945Z" fill="#20A052"/>
    <path d="M4.77271 3.54202H4.04598C3.49142 3.54202 2.82043 3.87434 2.82043 4.95031V22.6019C2.82043 23.6955 2.66027 26.4493 1.83618 26.9919C1.83618 26.9919 4.772 27.9938 4.772 22.568V14.1402H4.77271V12.0207H4.772V5.66151H4.77271V3.54202Z" fill="#20A052"/>
</svg>
