<svg width="65" height="32" viewBox="0 0 65 32" fill="none" xmlns="http://www.w3.org/2000/svg">
    <g clip-path="url(#clip0_5_581)">
        <path fill-rule="evenodd" clip-rule="evenodd" d="M63.4086 1.62671H48.6557V6.65145H52.9691V23.9741H59.0951V6.65145H63.4086V1.62671ZM47.1872 23.9511H41.0612V1.62671H47.1872V23.9511ZM40.0287 23.9511H33.2144L25.1152 15.2554V10.2766L32.962 1.60376H39.9829L30.943 12.8463L40.0287 23.9511Z" fill="black"/>
        <path fill-rule="evenodd" clip-rule="evenodd" d="M6.18634 9.79468C5.01619 11.2172 4.00668 12.7774 3.22656 14.4523L23.6466 23.9511L6.18634 9.79468Z" fill="#32A189"/>
        <path fill-rule="evenodd" clip-rule="evenodd" d="M23.6466 23.9511L14.1249 3.69165C12.427 4.47172 10.8669 5.4354 9.44434 6.58259L23.6466 23.9511Z" fill="#32A189"/>
        <path fill-rule="evenodd" clip-rule="evenodd" d="M23.6467 23.9511L23.6696 1.62671H23.4861C21.6735 1.62671 19.9068 1.85617 18.209 2.26915L23.6467 23.9511Z" fill="black"/>
        <path fill-rule="evenodd" clip-rule="evenodd" d="M1.75813 18.4905C1.29927 20.2342 1.06982 22.0697 1.04688 23.9511H23.6466L1.75813 18.4905Z" fill="#32A189"/>
        <path d="M63.7169 28.9778C63.6246 29.054 63.3357 29.1824 63.087 29.1824C62.7298 29.1824 62.4128 28.9056 62.4128 28.5003H63.8734C63.8734 27.8422 63.6527 27.3446 62.9706 27.3446C62.3928 27.3446 62.0115 27.774 62.0115 28.3799C62.0115 29.046 62.3446 29.4881 63.0709 29.4881C63.4079 29.4881 63.5725 29.4071 63.7169 29.355V28.9778ZM62.4128 28.2194C62.4409 27.9546 62.5934 27.6496 62.9626 27.6496C63.2876 27.6496 63.4721 27.9064 63.4721 28.2194H62.4128ZM61.1922 29.4392H61.5694V27.3927H61.1922V29.4392ZM61.5934 26.51H61.1681V26.9353H61.5934V26.51ZM37.5026 26.5988H37.9219V27.0262H37.5026V26.5988ZM38.3995 26.5988H38.8188V27.0262H38.3995V26.5988ZM39.6008 29.4392H39.978V28.5083C39.978 27.9947 40.1987 27.6737 40.5358 27.6737C40.6 27.6737 40.6762 27.6817 40.7445 27.7098V27.3728C40.6642 27.3567 40.608 27.3446 40.4957 27.3446C40.279 27.3446 40.0623 27.4972 39.9619 27.7098H39.9539V27.3927H39.6008V29.4392ZM39.0655 27.3439H38.6884V28.2909C38.6884 28.7885 38.4958 29.1336 38.0664 29.1336C37.7373 29.1135 37.633 28.8808 37.633 28.4033V27.3439H37.2559V28.5598C37.2559 29.1095 37.4926 29.4392 38.0223 29.4392C38.3072 29.4392 38.58 29.2981 38.6924 29.0653H38.7004V29.3904H39.0655L39.0655 27.3439ZM18.7293 29.4392H19.1065V28.5083C19.1065 27.9947 19.3272 27.6737 19.6642 27.6737C19.7285 27.6737 19.8047 27.6817 19.8729 27.7098V27.3728C19.7927 27.3567 19.7365 27.3446 19.6242 27.3446C19.4074 27.3446 19.1907 27.4972 19.0904 27.7098H19.0824V27.3927H18.7293L18.7293 29.4392ZM60.6481 27.3927H60.299V27.6978H60.291C60.1787 27.4771 59.9781 27.3446 59.6169 27.3446C58.9989 27.3446 58.702 27.9064 58.702 28.4321C58.702 28.9617 58.9909 29.4392 59.5768 29.4392C59.8376 29.4392 60.1025 29.3349 60.2629 29.1223H60.2709V29.3229C60.2709 29.757 60.0342 30.0258 59.6369 30.0258C59.3601 30.0258 59.1875 29.9736 58.8986 29.8412L58.8585 30.1903C59.1875 30.3027 59.3761 30.3308 59.5928 30.3308C60.3272 30.3308 60.6481 29.9736 60.6481 29.351L60.6481 27.3927ZM59.673 29.1343C59.3199 29.1343 59.1033 28.7973 59.1033 28.412C59.1033 28.0629 59.2919 27.6496 59.673 27.6496C60.0743 27.6496 60.2709 28.0147 60.2709 28.4401C60.2709 28.8213 60.0262 29.1343 59.673 29.1343ZM56.2502 28.416C56.2502 29.0019 56.6756 29.4881 57.2935 29.4881C57.9075 29.4881 58.3329 29.0019 58.3329 28.416C58.3329 27.794 57.9155 27.3446 57.2935 27.3446C56.6676 27.3446 56.2502 27.794 56.2502 28.416ZM56.6516 28.416C56.6516 28.0268 56.8883 27.6496 57.2935 27.6496C57.6948 27.6496 57.9316 28.0268 57.9316 28.416C57.9316 28.7812 57.735 29.1824 57.2935 29.1824C56.8481 29.1824 56.6516 28.7812 56.6516 28.416ZM55.3193 29.4392H55.6965V26.4298H55.3193V29.4392ZM52.6829 28.416C52.6829 29.0019 53.1083 29.4881 53.7262 29.4881C54.3402 29.4881 54.7656 29.0019 54.7656 28.416C54.7656 27.794 54.3482 27.3446 53.7262 27.3446C53.1003 27.3446 52.6829 27.794 52.6829 28.416ZM53.0843 28.416C53.0843 28.0268 53.321 27.6496 53.7262 27.6496C54.1275 27.6496 54.3643 28.0268 54.3643 28.416C54.3643 28.7812 54.1677 29.1824 53.7262 29.1824C53.2808 29.1824 53.0843 28.7812 53.0843 28.416ZM50.3677 29.4392H50.7449V28.4922C50.7449 27.9947 50.9375 27.6496 51.3668 27.6496C51.6959 27.6696 51.8002 27.9024 51.8002 28.3799V29.4392H52.1774V28.2234C52.1774 27.6737 51.9406 27.3446 51.411 27.3446C51.126 27.3446 50.8532 27.4851 50.7409 27.7178H50.7329V27.3927H50.3677V29.4392ZM47.9159 29.4392H48.2931V28.4922C48.2931 27.9947 48.4858 27.6496 48.9151 27.6496C49.2441 27.6696 49.3484 27.9024 49.3484 28.3799V29.4392H49.7256V28.2234C49.7256 27.6737 49.4889 27.3446 48.9593 27.3446C48.6743 27.3446 48.4376 27.469 48.3011 27.6857H48.2931V26.4298H47.9159L47.9159 29.4392ZM47.4665 27.4249C47.3582 27.3808 47.1616 27.3446 47.0091 27.3446C46.3831 27.3446 45.9658 27.794 45.9658 28.416C45.9658 29.0019 46.3911 29.4881 47.0091 29.4881C47.1455 29.4881 47.3261 29.476 47.4826 29.4031L47.4545 29.0661C47.3381 29.1424 47.1777 29.1824 47.0493 29.1824C46.5637 29.1824 46.367 28.7812 46.367 28.416C46.367 28.0268 46.6038 27.6496 47.0252 27.6496C47.1455 27.6496 47.29 27.6777 47.4344 27.7378L47.4665 27.4249ZM45.4722 28.9778C45.3799 29.054 45.091 29.1824 44.8422 29.1824C44.485 29.1824 44.1681 28.9056 44.1681 28.5003H45.6287C45.6287 27.8422 45.408 27.3446 44.7258 27.3446C44.148 27.3446 43.7667 27.774 43.7667 28.3799C43.7667 29.046 44.0999 29.4881 44.8261 29.4881C45.1632 29.4881 45.3277 29.4071 45.4722 29.355V28.9778ZM44.1681 28.2194C44.1962 27.9546 44.3486 27.6496 44.7178 27.6496C45.0428 27.6496 45.2274 27.9064 45.2274 28.2194H44.1681ZM42.563 29.4392H42.9642V26.9915H43.835V26.6384H41.6922V26.9915H42.563V29.4392ZM35.8859 29.4392H36.2631V27.6978H36.8049V27.3927H36.2631V27.1721C36.2631 26.8952 36.3032 26.6865 36.6282 26.6865C36.6925 26.6865 36.7647 26.6945 36.8089 26.7106L36.8249 26.4057C36.7486 26.3936 36.6684 26.3816 36.5721 26.3816C36.0144 26.3816 35.8859 26.7066 35.8859 27.2042V27.3927H35.4044V27.6978H35.8859V29.4392ZM34.1538 27.3927H33.6121V26.7989L33.2349 26.9192V27.3927H32.7734V27.6978H33.2349V28.8936C33.2349 29.3028 33.4756 29.4881 33.8649 29.4881C33.9853 29.4881 34.1016 29.456 34.1859 29.4312V29.1102C34.1297 29.1464 34.0454 29.1824 33.929 29.1824C33.7565 29.1824 33.6121 29.054 33.6121 28.8173V27.6978H34.1538V27.3927ZM32.4243 27.3927H32.0471V28.3397C32.0471 28.8373 31.8546 29.1824 31.4251 29.1824C31.0961 29.1624 30.9918 28.9296 30.9918 28.4521V27.3927H30.6146V28.6086C30.6146 29.1584 30.8513 29.4881 31.3811 29.4881C31.6659 29.4881 31.9388 29.347 32.0512 29.1142H32.0592V29.4392H32.4243L32.4243 27.3927ZM30.1411 27.3927H29.5994V26.7989L29.2222 26.9192V27.3927H28.7607V27.6978H29.2222V28.8936C29.2222 29.3028 29.4629 29.4881 29.8521 29.4881C29.9725 29.4881 30.0889 29.456 30.1732 29.4312V29.1102C30.117 29.1464 30.0327 29.1824 29.9163 29.1824C29.7438 29.1824 29.5994 29.054 29.5994 28.8173V27.6978H30.1411V27.3927ZM27.9862 29.4392H28.3634V27.3927H27.9862V29.4392ZM28.3875 26.51H27.9621V26.9353H28.3875V26.51ZM27.4646 27.3927H26.9228V26.7989L26.5456 26.9192V27.3927H26.0841V27.6978H26.5456V28.8936C26.5456 29.3028 26.7863 29.4881 27.1756 29.4881C27.296 29.4881 27.4123 29.456 27.4966 29.4312V29.1102C27.4405 29.1464 27.3562 29.1824 27.2398 29.1824C27.0673 29.1824 26.9228 29.054 26.9228 28.8173V27.6978H27.4646V27.3927ZM24.6436 29.3751C24.8161 29.468 25.0128 29.4881 25.2053 29.4881C25.5705 29.4881 25.9196 29.2867 25.9196 28.8494C25.9196 28.1954 25.0328 28.3157 25.0328 27.8984C25.0328 27.7299 25.2013 27.6496 25.3939 27.6496C25.4823 27.6496 25.707 27.7018 25.7912 27.7539L25.8233 27.4249C25.6748 27.3808 25.5304 27.3446 25.3538 27.3446C24.9485 27.3446 24.6315 27.5493 24.6315 27.9746C24.6315 28.5485 25.5183 28.5163 25.5183 28.8895C25.5183 29.1102 25.3057 29.1824 25.1331 29.1824C25.0247 29.1824 24.8121 29.1343 24.6636 29.038L24.6436 29.3751ZM22.3644 29.4392H22.7416V28.4922C22.7416 27.9947 22.9342 27.6496 23.3635 27.6496C23.6926 27.6696 23.7969 27.9024 23.7969 28.3799V29.4392H24.1741V28.2234C24.1741 27.6737 23.9373 27.3446 23.4077 27.3446C23.1227 27.3446 22.8499 27.4851 22.7376 27.7178H22.7296V27.3927H22.3644L22.3644 29.4392ZM21.2849 29.4392H21.6862V26.6384H21.2849V29.4392ZM17.9602 28.9778C17.8679 29.054 17.579 29.1824 17.3303 29.1824C16.9731 29.1824 16.6561 28.9056 16.6561 28.5003H18.1167C18.1167 27.8422 17.896 27.3446 17.2139 27.3446C16.636 27.3446 16.2548 27.774 16.2548 28.3799C16.2548 29.046 16.5879 29.4881 17.3142 29.4881C17.6512 29.4881 17.8158 29.4071 17.9602 29.355V28.9778ZM16.6561 28.2194C16.6842 27.9546 16.8367 27.6496 17.2059 27.6496C17.5309 27.6496 17.7154 27.9064 17.7154 28.2194H16.6561ZM13.9395 29.4392H14.3167V28.4922C14.3167 27.9947 14.5093 27.6496 14.9387 27.6496C15.2677 27.6696 15.372 27.9024 15.372 28.3799V29.4392H15.7492V28.2234C15.7492 27.6737 15.5125 27.3446 14.9828 27.3446C14.6979 27.3446 14.4612 27.469 14.3247 27.6857H14.3167V26.4298H13.9395L13.9395 29.4392ZM13.2975 27.3927H12.9203V28.3397C12.9203 28.8373 12.7277 29.1824 12.2983 29.1824C11.9693 29.1624 11.865 28.9296 11.865 28.4521V27.3927H11.4878V28.6086C11.4878 29.1584 11.7245 29.4881 12.2542 29.4881C12.5391 29.4881 12.812 29.347 12.9244 29.1142H12.9324V29.4392H13.2975L13.2975 27.3927ZM9.9268 29.4392H10.304V28.5083C10.304 27.9947 10.5247 27.6737 10.8617 27.6737C10.926 27.6737 11.0022 27.6817 11.0704 27.7098V27.3728C10.9902 27.3567 10.9339 27.3446 10.8216 27.3446C10.6049 27.3446 10.3882 27.4972 10.2879 27.7098H10.2799V27.3927H9.9268L9.9268 29.4392ZM8.19327 29.3751C8.36583 29.468 8.56246 29.4881 8.755 29.4881C9.12019 29.4881 9.46929 29.2867 9.46929 28.8494C9.46929 28.1954 8.58254 28.3157 8.58254 27.8984C8.58254 27.7299 8.75101 27.6496 8.94364 27.6496C9.03196 27.6496 9.25666 27.7018 9.34089 27.7539L9.37298 27.4249C9.22451 27.3808 9.08011 27.3446 8.90347 27.3446C8.49821 27.3446 8.18118 27.5493 8.18118 27.9746C8.18118 28.5485 9.06804 28.5163 9.06804 28.8895C9.06804 29.1102 8.85541 29.1824 8.68285 29.1824C8.57445 29.1824 8.36183 29.1343 8.21335 29.038L8.19327 29.3751ZM7.29843 29.4392H7.67561V26.4298H7.29843V29.4392ZM5.68929 29.4392H6.06648V28.5083C6.06648 27.9947 6.28718 27.6737 6.6242 27.6737C6.68845 27.6737 6.76468 27.6817 6.83293 27.7098V27.3728C6.75268 27.3567 6.69645 27.3446 6.58413 27.3446C6.36742 27.3446 6.1507 27.4972 6.0504 27.7098H6.04239V27.3927H5.68929V29.4392ZM3.57458 27.8582C3.72705 27.7298 3.95576 27.6496 4.16839 27.6496C4.54565 27.6496 4.67405 27.8302 4.67405 28.1833C4.52557 28.1753 4.42127 28.1753 4.27279 28.1753C3.88352 28.1753 3.3217 28.3357 3.3217 28.8494C3.3217 29.2948 3.63073 29.4881 4.07215 29.4881C4.41717 29.4881 4.61781 29.2988 4.70612 29.1744H4.71412V29.4392H5.06722C5.05922 29.3791 5.05122 29.2708 5.05122 29.038V28.1913C5.05122 27.6335 4.81443 27.3446 4.22862 27.3446C3.96775 27.3446 3.74304 27.4249 3.55449 27.5372L3.57458 27.8582ZM4.67405 28.6448C4.67405 28.9497 4.47742 29.1824 4.10423 29.1824C3.93168 29.1824 3.72305 29.0661 3.72305 28.8494C3.72305 28.4882 4.22863 28.4561 4.43326 28.4561C4.51349 28.4561 4.59372 28.4641 4.67405 28.4641V28.6448ZM0.837891 29.4392H1.23916V28.0669L2.4871 29.4392H3.073L1.65249 27.9626L2.96868 26.6384H2.43494L1.23916 27.8703V26.6384H0.837891V29.4392Z" fill="black"/>
    </g>
    <defs>
        <clipPath id="clip0_5_581">
            <rect width="64" height="32" fill="white" transform="translate(0.399902)"/>
        </clipPath>
    </defs>
</svg>
